<svg width="900" height="620" viewBox="0 0 900 620" fill="none" xmlns="http://www.w3.org/2000/svg">
  <rect width="900" height="620" rx="42" fill="#EFF6FF"/>
  <circle cx="705" cy="130" r="105" fill="#DBEAFE"/>
  <circle cx="190" cy="505" r="118" fill="#E0F2FE"/>
  <rect x="150" y="155" width="520" height="285" rx="34" fill="white" stroke="#2563EB" stroke-width="12"/>
  <rect x="200" y="205" width="420" height="150" rx="18" fill="#F8FAFC"/>
  <path d="M225 285H285L310 245L340 332L382 235L420 285H590" stroke="#2563EB" stroke-width="14" stroke-linecap="round" stroke-linejoin="round"/>
  <circle cx="250" cy="395" r="18" fill="#93C5FD"/>
  <circle cx="315" cy="395" r="18" fill="#60A5FA"/>
  <rect x="390" y="382" width="185" height="26" rx="13" fill="#BFDBFE"/>
  <rect x="330" y="440" width="150" height="40" rx="20" fill="#2563EB"/>
  <path d="M710 268C750 318 750 388 710 438" stroke="#2563EB" stroke-width="18" stroke-linecap="round"/>
  <path d="M762 230C830 310 830 402 762 482" stroke="#93C5FD" stroke-width="18" stroke-linecap="round"/>
  <text x="150" y="88" fill="#101828" font-family="Arial" font-size="42" font-weight="800">Monitoreo</text>
</svg>
