<svg width="900" height="620" viewBox="0 0 900 620" fill="none" xmlns="http://www.w3.org/2000/svg">
  <rect width="900" height="620" rx="42" fill="#FFF7ED"/>
  <circle cx="720" cy="120" r="96" fill="#FED7AA"/>
  <circle cx="180" cy="500" r="125" fill="#FFEDD5"/>
  <rect x="180" y="170" width="320" height="350" rx="44" fill="white" stroke="#EA580C" stroke-width="12"/>
  <rect x="235" y="220" width="210" height="96" rx="20" fill="#FFEDD5"/>
  <circle cx="285" cy="392" r="26" fill="#FDBA74"/>
  <circle cx="395" cy="392" r="26" fill="#FDBA74"/>
  <rect x="270" y="455" width="140" height="28" rx="14" fill="#EA580C"/>
  <path d="M565 245C620 207 705 230 735 292C765 355 724 430 655 442" stroke="#EA580C" stroke-width="20" stroke-linecap="round"/>
  <path d="M610 292C640 275 680 285 700 320" stroke="#FDBA74" stroke-width="20" stroke-linecap="round"/>
  <path d="M610 398C650 415 697 395 712 356" stroke="#FDBA74" stroke-width="20" stroke-linecap="round"/>
  <text x="150" y="88" fill="#101828" font-family="Arial" font-size="42" font-weight="800">Terapia</text>
</svg>
